<svg width="1200" height="675" viewBox="0 0 1200 675" fill="none" xmlns="http://www.w3.org/2000/svg">
  <rect width="1200" height="675" fill="#111411"/>
  <rect width="1200" height="675" fill="url(#bg)"/>
  <g opacity=".26" stroke="#F8F3EA" stroke-width="2">
    <path d="M0 125h1200M0 250h1200M0 375h1200M0 500h1200"/>
    <path d="M180 0v675M360 0v675M540 0v675M720 0v675M900 0v675M1080 0v675"/>
  </g>
  <circle cx="328" cy="214" r="62" fill="#4ECDC4"/>
  <circle cx="593" cy="337" r="78" fill="#FFD166"/>
  <circle cx="858" cy="214" r="62" fill="#FF6B5F"/>
  <circle cx="832" cy="482" r="68" fill="#4ECDC4"/>
  <circle cx="338" cy="472" r="68" fill="#FF6B5F"/>
  <path d="M385 240l139 66M662 304l137-65M638 397l137 55M522 390l-127 54M397 472h367" stroke="#F8F3EA" stroke-width="12" stroke-linecap="round"/>
  <text x="282" y="224" fill="#09211F" font-family="Arial, Helvetica, sans-serif" font-size="34" font-weight="900">DSA</text>
  <text x="534" y="350" fill="#111411" font-family="Arial, Helvetica, sans-serif" font-size="36" font-weight="900">API</text>
  <text x="810" y="224" fill="#111411" font-family="Arial, Helvetica, sans-serif" font-size="34" font-weight="900">SQL</text>
  <text x="789" y="494" fill="#09211F" font-family="Arial, Helvetica, sans-serif" font-size="34" font-weight="900">AWS</text>
  <text x="302" y="484" fill="#111411" font-family="Arial, Helvetica, sans-serif" font-size="34" font-weight="900">Git</text>
  <rect x="442" y="73" width="316" height="64" rx="18" fill="#F8F3EA"/>
  <text x="482" y="115" fill="#111411" font-family="Arial, Helvetica, sans-serif" font-size="30" font-weight="900">Engineering Core</text>
  <defs>
    <radialGradient id="bg" cx="0" cy="0" r="1" gradientUnits="userSpaceOnUse" gradientTransform="translate(600 338) rotate(90) scale(420 720)">
      <stop stop-color="#33435A"/>
      <stop offset=".58" stop-color="#24251F"/>
      <stop offset="1" stop-color="#111411"/>
    </radialGradient>
  </defs>
</svg>
